<svg version="1.1" id="Layer_1" xmlns="http://www.w3.org/2000/svg" xmlns:xlink="http://www.w3.org/1999/xlink" x="0px" y="0px"
	 width="100%" viewBox="0 0 500 500" enable-background="new 0 0 500 500" xml:space="preserve">
<path fill="#010101" opacity="1.000000" stroke="none" 
	d="
M501.000000,245.000000 
	C501.000000,330.666656 501.000000,415.833282 501.000000,500.999939 
	C334.333405,500.999969 167.666794,500.999969 1.000135,501.000000 
	C1.000090,334.333435 1.000090,167.666870 1.000045,1.000225 
	C167.666519,1.000150 334.333038,1.000150 500.999786,1.000075 
	C501.000000,82.166664 501.000000,163.333328 501.000000,245.000000 
M334.500214,22.326864 
	C283.003326,22.326864 231.506424,22.326849 180.009521,22.326866 
	C153.510437,22.326876 127.011261,22.283606 100.512321,22.344513 
	C86.392426,22.376968 74.014183,30.417313 71.800034,43.218613 
	C70.111084,52.983433 71.464531,63.274475 71.464531,73.700813 
	C73.135078,73.700813 74.941467,73.700821 76.747856,73.700813 
	C137.579086,73.700737 198.410324,73.698708 259.241547,73.701775 
	C277.670135,73.702698 295.618347,75.877655 312.971649,82.868637 
	C361.937439,102.595078 371.298981,170.921173 335.455109,197.553207 
	C335.642426,197.828171 335.795807,198.136353 336.024994,198.370300 
	C336.370911,198.723373 336.761230,199.035156 337.147217,199.346451 
	C356.728821,215.138092 365.979187,235.583862 363.970032,260.679443 
	C361.773773,288.112518 348.669952,308.410400 323.368774,320.232208 
	C306.463776,328.130951 288.464630,330.846649 270.022980,331.276794 
	C262.281219,331.457397 254.531738,331.306885 246.842316,331.306885 
	C246.842316,311.214935 246.842316,291.474121 246.842316,271.528503 
	C248.495056,271.442444 249.802383,271.318695 251.110001,271.315491 
	C258.609680,271.296936 266.113373,271.461456 273.608307,271.271973 
	C285.458008,270.972412 295.831787,264.712189 298.768158,256.365295 
	C303.723450,242.279419 293.897430,228.539703 277.565216,228.138657 
	C252.750290,227.529327 227.913437,227.809631 203.085861,227.732803 
	C202.624756,227.731369 202.162857,227.987717 201.156616,228.284409 
	C201.156616,262.578125 201.156616,296.967987 201.156616,331.314575 
	C179.535141,331.314575 158.481247,331.314575 137.605560,331.314575 
	C137.605560,277.368073 137.605560,223.807693 137.605560,170.087936 
	C139.831619,170.087936 141.660202,170.087936 143.488785,170.087936 
	C183.487396,170.087982 223.486404,170.175827 263.484222,169.996887 
	C269.749390,169.968857 276.123810,169.249573 282.239380,167.903442 
	C288.450684,166.536240 292.167206,162.172226 292.786255,155.521301 
	C294.055023,141.889465 287.836914,134.359955 274.133575,133.120712 
	C272.312561,132.956024 270.471710,132.970245 268.640045,132.970047 
	C204.308945,132.963165 139.977829,132.964462 75.646721,132.964615 
	C74.039879,132.964630 72.433044,132.964615 70.589882,132.964615 
	C70.589882,135.249985 70.589882,136.907547 70.589882,138.565125 
	C70.589882,209.729324 70.872894,280.895386 70.403358,352.056519 
	C70.276001,371.358398 85.738029,383.270996 101.835327,383.211487 
	C201.163879,382.844299 300.494446,383.029877 399.824341,383.024811 
	C419.163269,383.023804 431.057129,371.219391 431.058563,352.007690 
	C431.065948,252.511139 431.064789,153.014572 431.059570,53.518017 
	C431.058563,34.164883 419.289642,22.346924 399.998016,22.330946 
	C378.498749,22.313139 356.999512,22.326870 334.500214,22.326864 
M219.207184,405.425018 
	C214.515350,399.717041 208.332596,399.535004 201.934555,401.140320 
	C196.696533,402.454590 193.461090,406.439972 193.284760,411.566132 
	C192.862274,423.848419 192.735306,436.175598 193.322662,448.444733 
	C193.668945,455.678101 198.641983,459.747833 205.710342,460.548218 
	C212.704865,461.340302 219.283722,458.478058 220.433029,452.262146 
	C223.183823,437.384674 223.246368,422.316132 220.346359,407.354065 
	C220.255005,406.882843 219.914886,406.459900 219.207184,405.425018 
M291.353241,450.582886 
	C292.225494,453.598145 293.097748,456.613403 293.999969,459.732300 
	C297.372284,459.732300 300.963959,459.732300 304.679962,459.732300 
	C302.783569,439.997101 300.914703,420.548279 299.050323,401.145874 
	C292.016663,401.145874 285.569183,401.145874 278.907043,401.145874 
	C277.014984,420.771301 275.140991,440.209442 273.253357,459.788879 
	C277.332977,459.788879 280.929901,459.788879 284.772278,459.788879 
	C285.010590,456.700500 285.234222,453.802032 285.486664,450.530334 
	C287.485321,450.530334 288.952667,450.530334 291.353241,450.582886 
M228.757751,454.561432 
	C233.431061,460.195221 240.082581,462.089691 247.096451,459.675903 
	C253.435120,457.494507 255.337646,452.370392 255.571457,446.323944 
	C255.717484,442.547668 255.598618,438.761139 255.598618,434.767365 
	C251.425430,434.767365 247.706375,434.767365 243.575287,434.767365 
	C243.575287,438.532837 243.843674,442.031464 243.447723,445.453186 
	C243.281326,446.891174 241.710068,448.166565 240.777481,449.515900 
	C239.909058,448.270294 238.311401,447.038635 238.287247,445.776886 
	C238.089706,435.451538 238.095657,425.118591 238.319473,414.794037 
	C238.344116,413.657379 240.127808,412.558838 241.095657,411.442627 
	C241.903290,412.536774 243.283768,413.570099 243.407547,414.736816 
	C243.735062,417.823578 243.518539,420.968109 243.518539,424.175720 
	C247.810120,424.175720 251.507843,424.175720 255.435669,424.175720 
	C255.435669,420.647522 255.563934,417.492950 255.411240,414.352020 
	C254.979126,405.463928 250.512756,400.911041 241.799469,400.301178 
	C233.369720,399.711182 227.556442,403.933044 226.938217,412.840179 
	C226.133255,424.437988 226.466400,436.121735 226.541290,447.767059 
	C226.554565,449.829803 227.698257,451.885315 228.757751,454.561432 
M177.346710,442.961700 
	C177.437500,443.620605 177.804276,444.408478 177.567871,444.914520 
	C176.827515,446.499237 175.859680,447.977661 174.979980,449.497284 
	C174.010345,448.013672 172.553421,446.639160 172.190872,445.019623 
	C171.706406,442.855591 172.071060,440.501434 172.071060,438.313812 
	C167.868439,438.313812 164.169968,438.313812 159.997421,438.313812 
	C160.381653,442.694366 160.417297,446.703125 161.144302,450.582306 
	C162.371460,457.130493 166.883392,460.296265 174.669724,460.648560 
	C181.736816,460.968262 186.296280,458.271667 188.091736,452.000031 
	C190.717819,442.827057 190.047501,434.246307 182.560028,427.183319 
	C179.183289,423.997955 175.905594,420.671234 172.934723,417.114838 
	C172.074326,416.084839 172.249146,414.022675 172.362640,412.463776 
	C172.391159,412.071960 174.629562,411.321625 174.803726,411.546875 
	C175.711136,412.720428 176.354843,414.124542 176.934555,415.513428 
	C177.217880,416.192200 177.162796,417.012207 177.245087,417.646606 
	C181.391129,417.646606 185.140610,417.646606 189.096176,417.646606 
	C188.939209,415.524750 188.976578,413.675568 188.640900,411.896759 
	C187.119034,403.832336 182.093842,399.940796 173.804535,400.270203 
	C166.018539,400.579620 161.880951,404.508545 160.628281,412.510590 
	C159.578491,419.216644 162.206985,424.367096 166.652939,429.151855 
	C170.430664,433.217438 173.688019,437.766541 177.346710,442.961700 
M308.211182,440.499329 
	C308.211182,446.932587 308.211182,453.365814 308.211182,459.730957 
	C316.596924,459.730957 324.341644,459.730957 332.112366,459.730957 
	C332.112366,456.357147 332.112366,453.268494 332.112366,449.804047 
	C328.072662,449.804047 324.302002,449.804047 320.104523,449.804047 
	C320.104523,433.368256 320.104523,417.306763 320.104523,401.267273 
	C315.927856,401.267273 312.207672,401.267273 308.211182,401.267273 
	C308.211182,414.231323 308.211182,426.865479 308.211182,440.499329 
M258.842072,430.499939 
	C258.842072,440.241913 258.842072,449.983856 258.842072,459.684082 
	C262.960602,459.684082 266.521973,459.684082 269.928833,459.684082 
	C269.928833,439.991577 269.928833,420.613953 269.928833,401.272247 
	C266.089539,401.272247 262.536560,401.272247 258.842072,401.272247 
	C258.842072,410.897308 258.842072,420.198608 258.842072,430.499939 
z"/>
<path fill="#FEFEFE" opacity="1.000000" stroke="none" 
	d="
M335.000244,22.326870 
	C356.999512,22.326870 378.498749,22.313139 399.998016,22.330946 
	C419.289642,22.346924 431.058563,34.164883 431.059570,53.518017 
	C431.064789,153.014572 431.065948,252.511139 431.058563,352.007690 
	C431.057129,371.219391 419.163269,383.023804 399.824341,383.024811 
	C300.494446,383.029877 201.163879,382.844299 101.835327,383.211487 
	C85.738029,383.270996 70.276001,371.358398 70.403358,352.056519 
	C70.872894,280.895386 70.589882,209.729324 70.589882,138.565125 
	C70.589882,136.907547 70.589882,135.249985 70.589882,132.964615 
	C72.433044,132.964615 74.039879,132.964630 75.646721,132.964615 
	C139.977829,132.964462 204.308945,132.963165 268.640045,132.970047 
	C270.471710,132.970245 272.312561,132.956024 274.133575,133.120712 
	C287.836914,134.359955 294.055023,141.889465 292.786255,155.521301 
	C292.167206,162.172226 288.450684,166.536240 282.239380,167.903442 
	C276.123810,169.249573 269.749390,169.968857 263.484222,169.996887 
	C223.486404,170.175827 183.487396,170.087982 143.488785,170.087936 
	C141.660202,170.087936 139.831619,170.087936 137.605560,170.087936 
	C137.605560,223.807693 137.605560,277.368073 137.605560,331.314575 
	C158.481247,331.314575 179.535141,331.314575 201.156616,331.314575 
	C201.156616,296.967987 201.156616,262.578125 201.156616,228.284409 
	C202.162857,227.987717 202.624756,227.731369 203.085861,227.732803 
	C227.913437,227.809631 252.750290,227.529327 277.565216,228.138657 
	C293.897430,228.539703 303.723450,242.279419 298.768158,256.365295 
	C295.831787,264.712189 285.458008,270.972412 273.608307,271.271973 
	C266.113373,271.461456 258.609680,271.296936 251.110001,271.315491 
	C249.802383,271.318695 248.495056,271.442444 246.842316,271.528503 
	C246.842316,291.474121 246.842316,311.214935 246.842316,331.306885 
	C254.531738,331.306885 262.281219,331.457397 270.022980,331.276794 
	C288.464630,330.846649 306.463776,328.130951 323.368774,320.232208 
	C348.669952,308.410400 361.773773,288.112518 363.970032,260.679443 
	C365.979187,235.583862 356.728821,215.138092 337.147217,199.346451 
	C336.761230,199.035156 336.370911,198.723373 336.024994,198.370300 
	C335.795807,198.136353 335.642426,197.828171 335.458130,197.551147 
	C371.298981,170.921173 361.937439,102.595078 312.971649,82.868637 
	C295.618347,75.877655 277.670135,73.702698 259.241547,73.701775 
	C198.410324,73.698708 137.579086,73.700737 76.747856,73.700813 
	C74.941467,73.700821 73.135078,73.700813 71.464531,73.700813 
	C71.464531,63.274475 70.111084,52.983433 71.800034,43.218613 
	C74.014183,30.417313 86.392426,22.376968 100.512321,22.344513 
	C127.011261,22.283606 153.510437,22.326876 180.009521,22.326866 
	C231.506424,22.326849 283.003326,22.326864 335.000244,22.326870 
z"/>
<path fill="#F9F9F9" opacity="1.000000" stroke="none" 
	d="
M219.448944,405.719727 
	C219.914886,406.459900 220.255005,406.882843 220.346359,407.354065 
	C223.246368,422.316132 223.183823,437.384674 220.433029,452.262146 
	C219.283722,458.478058 212.704865,461.340302 205.710342,460.548218 
	C198.641983,459.747833 193.668945,455.678101 193.322662,448.444733 
	C192.735306,436.175598 192.862274,423.848419 193.284760,411.566132 
	C193.461090,406.439972 196.696533,402.454590 201.934555,401.140320 
	C208.332596,399.535004 214.515350,399.717041 219.448944,405.719727 
M209.900070,447.099640 
	C209.946320,436.447083 210.074646,425.793427 209.930603,415.143433 
	C209.913406,413.872040 208.412842,412.620697 207.599838,411.360077 
	C206.679749,412.345581 204.976486,413.318115 204.959885,414.318604 
	C204.780518,425.132751 204.673279,435.957092 205.000427,446.764893 
	C205.095459,449.904083 207.239639,450.680237 209.900070,447.099640 
z"/>
<path fill="#FAFAFA" opacity="1.000000" stroke="none" 
	d="
M290.886658,450.556610 
	C288.952667,450.530334 287.485321,450.530334 285.486664,450.530334 
	C285.234222,453.802032 285.010590,456.700500 284.772278,459.788879 
	C280.929901,459.788879 277.332977,459.788879 273.253357,459.788879 
	C275.140991,440.209442 277.014984,420.771301 278.907043,401.145874 
	C285.569183,401.145874 292.016663,401.145874 299.050323,401.145874 
	C300.914703,420.548279 302.783569,439.997101 304.679962,459.732300 
	C300.963959,459.732300 297.372284,459.732300 293.999969,459.732300 
	C293.097748,456.613403 292.225494,453.598145 290.886658,450.556610 
M289.427155,441.026001 
	C290.135071,440.579651 291.488068,440.079102 291.455841,439.694885 
	C290.786926,431.728210 289.960754,423.774780 289.165710,415.818726 
	C287.665649,423.179688 287.080353,430.434174 286.768341,437.700439 
	C286.721954,438.780640 287.962799,439.916107 289.427155,441.026001 
z"/>
<path fill="#F6F6F6" opacity="1.000000" stroke="none" 
	d="
M228.538849,454.252808 
	C227.698257,451.885315 226.554565,449.829803 226.541290,447.767059 
	C226.466400,436.121735 226.133255,424.437988 226.938217,412.840179 
	C227.556442,403.933044 233.369720,399.711182 241.799469,400.301178 
	C250.512756,400.911041 254.979126,405.463928 255.411240,414.352020 
	C255.563934,417.492950 255.435669,420.647522 255.435669,424.175720 
	C251.507843,424.175720 247.810120,424.175720 243.518539,424.175720 
	C243.518539,420.968109 243.735062,417.823578 243.407547,414.736816 
	C243.283768,413.570099 241.903290,412.536774 241.095657,411.442627 
	C240.127808,412.558838 238.344116,413.657379 238.319473,414.794037 
	C238.095657,425.118591 238.089706,435.451538 238.287247,445.776886 
	C238.311401,447.038635 239.909058,448.270294 240.777466,449.515900 
	C241.710068,448.166565 243.281326,446.891174 243.447723,445.453186 
	C243.843674,442.031464 243.575287,438.532837 243.575287,434.767365 
	C247.706375,434.767365 251.425430,434.767365 255.598618,434.767365 
	C255.598618,438.761139 255.717484,442.547668 255.571457,446.323944 
	C255.337646,452.370392 253.435120,457.494507 247.096451,459.675903 
	C240.082581,462.089691 233.431061,460.195221 228.538849,454.252808 
z"/>
<path fill="#F8F8F8" opacity="1.000000" stroke="none" 
	d="
M177.261139,442.531708 
	C173.688019,437.766541 170.430664,433.217438 166.652939,429.151855 
	C162.206985,424.367096 159.578491,419.216644 160.628281,412.510590 
	C161.880951,404.508545 166.018539,400.579620 173.804535,400.270203 
	C182.093842,399.940796 187.119034,403.832336 188.640900,411.896759 
	C188.976578,413.675568 188.939209,415.524750 189.096176,417.646606 
	C185.140610,417.646606 181.391129,417.646606 177.245087,417.646606 
	C177.162796,417.012207 177.217880,416.192200 176.934555,415.513428 
	C176.354843,414.124542 175.711136,412.720428 174.803726,411.546875 
	C174.629562,411.321625 172.391159,412.071960 172.362640,412.463776 
	C172.249146,414.022675 172.074326,416.084839 172.934723,417.114838 
	C175.905594,420.671234 179.183289,423.997955 182.560028,427.183319 
	C190.047501,434.246307 190.717819,442.827057 188.091736,452.000031 
	C186.296280,458.271667 181.736816,460.968262 174.669724,460.648560 
	C166.883392,460.296265 162.371460,457.130493 161.144302,450.582306 
	C160.417297,446.703125 160.381653,442.694366 159.997421,438.313812 
	C164.169968,438.313812 167.868439,438.313812 172.071060,438.313812 
	C172.071060,440.501434 171.706406,442.855591 172.190872,445.019623 
	C172.553421,446.639160 174.010345,448.013672 174.979980,449.497284 
	C175.859680,447.977661 176.827515,446.499237 177.567871,444.914520 
	C177.804276,444.408478 177.437500,443.620605 177.261139,442.531708 
z"/>
<path fill="#F9F9F9" opacity="1.000000" stroke="none" 
	d="
M308.211182,439.999481 
	C308.211182,426.865479 308.211182,414.231323 308.211182,401.267273 
	C312.207672,401.267273 315.927856,401.267273 320.104523,401.267273 
	C320.104523,417.306763 320.104523,433.368256 320.104523,449.804047 
	C324.302002,449.804047 328.072662,449.804047 332.112366,449.804047 
	C332.112366,453.268494 332.112366,456.357147 332.112366,459.730957 
	C324.341644,459.730957 316.596924,459.730957 308.211182,459.730957 
	C308.211182,453.365814 308.211182,446.932587 308.211182,439.999481 
z"/>
<path fill="#FFFFFF" opacity="1.000000" stroke="none" 
	d="
M258.842072,429.999908 
	C258.842072,420.198608 258.842072,410.897308 258.842072,401.272247 
	C262.536560,401.272247 266.089539,401.272247 269.928833,401.272247 
	C269.928833,420.613953 269.928833,439.991577 269.928833,459.684082 
	C266.521973,459.684082 262.960602,459.684082 258.842072,459.684082 
	C258.842072,449.983856 258.842072,440.241913 258.842072,429.999908 
z"/>
<path fill="#040404" opacity="1.000000" stroke="none" 
	d="
M209.759338,447.545837 
	C207.239639,450.680237 205.095459,449.904083 205.000427,446.764893 
	C204.673279,435.957092 204.780518,425.132751 204.959885,414.318604 
	C204.976486,413.318115 206.679749,412.345581 207.599838,411.360077 
	C208.412842,412.620697 209.913406,413.872040 209.930603,415.143433 
	C210.074646,425.793427 209.946320,436.447083 209.759338,447.545837 
z"/>
<path fill="#121212" opacity="1.000000" stroke="none" 
	d="
M289.017639,441.026001 
	C287.962799,439.916107 286.721954,438.780640 286.768341,437.700439 
	C287.080353,430.434174 287.665649,423.179688 289.165710,415.818726 
	C289.960754,423.774780 290.786926,431.728210 291.455841,439.694885 
	C291.488068,440.079102 290.135071,440.579651 289.017639,441.026001 
z"/>
</svg>